%
T1C.01575F095S3
X00689Y001476
X00689Y002215
X00689Y002953
X00811Y001378
X009366Y002913
X009724Y00185
X010315Y001614
X010472Y001102
X013287Y001722
X013287Y000984
X013996Y00065
X014026Y002215
X015472Y002087
X016978Y000984
X017933Y000965
X01878Y001102
X019439Y001476
X019931Y002215
X020453Y001102
X029774Y00123
X032234Y00123
X035492Y002165
X037323Y001575
X037854Y001988
X03874Y002343
X039961Y002343
X040827Y001811
X046752Y001378
X051673Y002461
X055689Y003031
X062746Y002215
X064232Y002067
X064232Y002657
X066191Y002461
X07221Y002827
X079478Y002215
X076988Y005413
X076772Y003425
X072638Y004528
X07105Y005098
X066191Y003445
X065207Y005167
X0555Y00375
X051654Y00315
X05002Y005453
X048287Y005177
X037648Y003691
X035679Y003691
X034941Y003691
X031437Y003819
X030512Y004862
X026752Y005118
X024291Y003366
X022421Y005118
X022146Y003445
X020915Y003199
X019193Y005413
X018947Y003937
X018602Y005177
X018209Y003445
X017963Y005167
X016555Y004173
X014764Y003199
X014026Y004183
X013287Y003199
X013287Y004183
X011319Y004429
X010827Y003199
X010138Y005512
X010134Y003429
X00935Y005512
X00878Y00498
X00689Y003691
X006398Y005167
X004606Y006693
X006161Y005906
X006811Y007382
X007382Y007382
X009331Y006378
X010138Y006417
X010827Y005906
X010965Y008051
X011319Y006644
X011319Y007382
X013287Y005659
X013287Y006398
X013287Y007136
X013287Y007874
X015502Y007382
X016978Y00812
X0185Y00625
X018947Y007874
X019843Y007677
X020669Y00689
X020669Y007628
X022421Y006024
X023868Y006644
X025098Y00689
X026083Y007382
X026083Y00812
X026122Y006181
X030315Y007126
X034941Y005659
X035059Y006949
X039154Y007953
X039843Y005709
X0406Y007628
X041339Y006152
X045522Y007136
X04749Y005906
X048228Y005906
X049459Y005906
X049705Y007136
X052165Y007136
X052894Y007972
X05315Y005906
X056348Y005659
X056348Y007136
X062746Y006516
X076772Y006152
X076772Y007579
X077638Y007528
X081575Y008661
X079055Y009764
X066683Y010581
X066683Y008366
X062746Y00935
X0625Y010581
X060106Y010118
X059547Y010581
X058957Y010433
X056969Y010433
X056594Y009843
X052894Y01063
X04626Y010581
X045522Y008366
X042126Y008878
X0406Y008366
X0406Y009104
X039764Y008898
X033219Y010089
X031457Y010177
X025886Y010335
X02313Y010039
X022185Y00878
X020669Y010335
X019035Y00878
X017402Y010374
X016978Y008858
X016299Y00937
X013287Y00935
X013287Y008612
X011614Y010039
X010827Y009104
X010354Y01063
X010138Y008504
X010089Y010089
X008957Y009016
X007854Y008524
X007835Y01061
X007323Y00815
X006644Y009843
X007185Y011299
X008957Y011299
X0125Y0115
X017618Y012579
X021161Y011073
X025886Y011004
X027579Y011929
X030906Y012205
X03248Y011565
X033839Y011614
X038406Y01122
X038878Y012057
X040098Y012106
X041732Y012126
X041811Y010787
X054134Y011319
X057579Y012057
X059055Y012057
X060571Y011496
X076772Y011073
X078494Y011073
T2C.0315F197S55
X068996Y00315
X068996Y00689
X070374Y00315
X070374Y00689
T3C.03937F197S55
X027768Y008071
X027768Y006496
X028768Y008071
X028768Y006496
X043358Y004921
X043358Y008071
X043358Y006496
X04374Y001319
X044358Y004921
X044358Y008071
X044358Y006496
X044528Y001319
X077291Y002504
X077791Y001804
X078291Y002504
X080709Y010236
X080709Y011417
X028768Y009646
X027768Y009646
T4C.05118F107S55
X072441Y00187
X072441Y007776
X072441Y009744
X075394Y007776
X075394Y00187
X075394Y009744
X078579Y00689
X078579Y004921
X079563Y005906
X079563Y007874
X079937Y009055
X080547Y00689
X080547Y004921
X079937Y012598
X075394Y011713
X072441Y011713
T5C.06693F089S55
X068315Y011398
X069874Y011398
T6C.11811F069S658
X028268Y004921
X043858Y009646
T7C.1252F035S794
X03622Y011024
M30
